<mxfile host="app.diagrams.net" modified="2021-12-10T10:08:25.016Z" agent="5.0 (Windows NT 10.0; Win64; x64) AppleWebKit/537.36 (KHTML, like Gecko) Chrome/96.0.4664.45 Safari/537.36" etag="t-HtTkjtC0Ry1Ii4t-VE" version="15.9.4" type="github">
  <diagram id="mj5j3Ta5XQgOwfbZ-XNI" name="Page-1">
    <mxGraphModel dx="1483" dy="1950" grid="1" gridSize="10" guides="1" tooltips="1" connect="1" arrows="1" fold="1" page="1" pageScale="1" pageWidth="827" pageHeight="1169" math="0" shadow="0">
      <root>
        <mxCell id="0" />
        <mxCell id="1" parent="0" />
        <mxCell id="3-Ja3zfgAtnqCm58jpz--3" value="VPC 1&amp;nbsp; IP 10.10.10.0/24&amp;nbsp;" style="sketch=0;outlineConnect=0;gradientColor=none;html=1;whiteSpace=wrap;fontSize=12;fontStyle=0;shape=mxgraph.aws4.group;grIcon=mxgraph.aws4.group_vpc;strokeColor=#879196;fillColor=none;verticalAlign=top;align=left;spacingLeft=30;fontColor=#879196;dashed=0;" vertex="1" parent="1">
          <mxGeometry x="40" y="-710" width="330" height="680" as="geometry" />
        </mxCell>
        <mxCell id="3-Ja3zfgAtnqCm58jpz--4" value="VPC 2 IP:10.20.20.0/24" style="sketch=0;outlineConnect=0;gradientColor=none;html=1;whiteSpace=wrap;fontSize=12;fontStyle=0;shape=mxgraph.aws4.group;grIcon=mxgraph.aws4.group_vpc;strokeColor=#879196;fillColor=none;verticalAlign=top;align=left;spacingLeft=30;fontColor=#879196;dashed=0;" vertex="1" parent="1">
          <mxGeometry x="445" y="-710" width="310" height="680" as="geometry" />
        </mxCell>
        <mxCell id="3-Ja3zfgAtnqCm58jpz--9" value="Availability zone 1" style="sketch=0;outlineConnect=0;gradientColor=none;html=1;whiteSpace=wrap;fontSize=12;fontStyle=0;shape=mxgraph.aws4.group;grIcon=mxgraph.aws4.group_availability_zone;strokeColor=#545B64;fillColor=none;verticalAlign=top;align=left;spacingLeft=30;fontColor=#545B64;dashed=1;" vertex="1" parent="1">
          <mxGeometry x="55" y="-650" width="140" height="600" as="geometry" />
        </mxCell>
        <mxCell id="3-Ja3zfgAtnqCm58jpz--11" value="Availability zone&lt;br&gt;Frankfuhrt" style="sketch=0;outlineConnect=0;gradientColor=none;html=1;whiteSpace=wrap;fontSize=12;fontStyle=0;shape=mxgraph.aws4.group;grIcon=mxgraph.aws4.group_availability_zone;strokeColor=#545B64;fillColor=none;verticalAlign=top;align=left;spacingLeft=30;fontColor=#545B64;dashed=1;" vertex="1" parent="1">
          <mxGeometry x="455.25" y="-650" width="139.75" height="600" as="geometry" />
        </mxCell>
        <mxCell id="3-Ja3zfgAtnqCm58jpz--12" value="Availability zone" style="sketch=0;outlineConnect=0;gradientColor=none;html=1;whiteSpace=wrap;fontSize=12;fontStyle=0;shape=mxgraph.aws4.group;grIcon=mxgraph.aws4.group_availability_zone;strokeColor=#545B64;fillColor=none;verticalAlign=top;align=left;spacingLeft=30;fontColor=#545B64;dashed=1;" vertex="1" parent="1">
          <mxGeometry x="614" y="-650" width="129.75" height="600" as="geometry" />
        </mxCell>
        <mxCell id="3-Ja3zfgAtnqCm58jpz--43" value="" style="edgeStyle=orthogonalEdgeStyle;rounded=0;orthogonalLoop=1;jettySize=auto;html=1;" edge="1" parent="1" source="3-Ja3zfgAtnqCm58jpz--13" target="3-Ja3zfgAtnqCm58jpz--18">
          <mxGeometry relative="1" as="geometry" />
        </mxCell>
        <mxCell id="3-Ja3zfgAtnqCm58jpz--44" value="" style="edgeStyle=orthogonalEdgeStyle;rounded=0;orthogonalLoop=1;jettySize=auto;html=1;" edge="1" parent="1" source="3-Ja3zfgAtnqCm58jpz--13" target="3-Ja3zfgAtnqCm58jpz--40">
          <mxGeometry relative="1" as="geometry" />
        </mxCell>
        <mxCell id="3-Ja3zfgAtnqCm58jpz--13" value="" style="outlineConnect=0;dashed=0;verticalLabelPosition=bottom;verticalAlign=top;align=center;html=1;shape=mxgraph.aws3.vpc_peering;fillColor=#F58534;gradientColor=none;" vertex="1" parent="1">
          <mxGeometry x="386" y="-452.28999999999996" width="38" height="39.65" as="geometry" />
        </mxCell>
        <mxCell id="3-Ja3zfgAtnqCm58jpz--61" style="edgeStyle=orthogonalEdgeStyle;rounded=0;orthogonalLoop=1;jettySize=auto;html=1;entryX=0;entryY=0.5;entryDx=0;entryDy=0;entryPerimeter=0;fontColor=#000000;" edge="1" parent="1" source="3-Ja3zfgAtnqCm58jpz--14" target="3-Ja3zfgAtnqCm58jpz--40">
          <mxGeometry relative="1" as="geometry" />
        </mxCell>
        <mxCell id="3-Ja3zfgAtnqCm58jpz--14" value="Amazon S3 &lt;br&gt;Static Content" style="sketch=0;outlineConnect=0;fontColor=#232F3E;gradientColor=none;strokeColor=#ffffff;fillColor=#232F3E;dashed=0;verticalLabelPosition=middle;verticalAlign=bottom;align=center;html=1;whiteSpace=wrap;fontSize=10;fontStyle=1;spacing=3;shape=mxgraph.aws4.productIcon;prIcon=mxgraph.aws4.s3;" vertex="1" parent="1">
          <mxGeometry x="80" y="-10" width="76.5" height="110" as="geometry" />
        </mxCell>
        <mxCell id="3-Ja3zfgAtnqCm58jpz--17" value="Public subnet" style="points=[[0,0],[0.25,0],[0.5,0],[0.75,0],[1,0],[1,0.25],[1,0.5],[1,0.75],[1,1],[0.75,1],[0.5,1],[0.25,1],[0,1],[0,0.75],[0,0.5],[0,0.25]];outlineConnect=0;gradientColor=none;html=1;whiteSpace=wrap;fontSize=12;fontStyle=0;shape=mxgraph.aws4.group;grIcon=mxgraph.aws4.group_security_group;grStroke=0;strokeColor=#248814;fillColor=#E9F3E6;verticalAlign=top;align=left;spacingLeft=30;fontColor=#248814;dashed=0;" vertex="1" parent="1">
          <mxGeometry x="465.25" y="-600" width="119.75" height="310" as="geometry" />
        </mxCell>
        <mxCell id="3-Ja3zfgAtnqCm58jpz--23" value="Internet&#xa;gateway" style="sketch=0;outlineConnect=0;fontColor=#232F3E;gradientColor=none;strokeColor=#232F3E;fillColor=#ffffff;dashed=0;verticalLabelPosition=bottom;verticalAlign=top;align=center;html=1;fontSize=12;fontStyle=0;aspect=fixed;shape=mxgraph.aws4.resourceIcon;resIcon=mxgraph.aws4.internet_gateway;" vertex="1" parent="1">
          <mxGeometry x="355" y="-740" width="44" height="44" as="geometry" />
        </mxCell>
        <mxCell id="3-Ja3zfgAtnqCm58jpz--24" value="Internet&#xa;gateway" style="sketch=0;outlineConnect=0;fontColor=#232F3E;gradientColor=none;strokeColor=#232F3E;fillColor=#ffffff;dashed=0;verticalLabelPosition=bottom;verticalAlign=top;align=center;html=1;fontSize=12;fontStyle=0;aspect=fixed;shape=mxgraph.aws4.resourceIcon;resIcon=mxgraph.aws4.internet_gateway;" vertex="1" parent="1">
          <mxGeometry x="735" y="-740" width="44" height="44" as="geometry" />
        </mxCell>
        <mxCell id="3-Ja3zfgAtnqCm58jpz--32" value="Subnet:ACL" style="shape=mxgraph.ibm.box;prType=subnet;fontStyle=0;verticalAlign=top;align=left;spacingLeft=32;spacingTop=4;fillColor=#E6F0E2;rounded=0;whiteSpace=wrap;html=1;strokeColor=#00882B;strokeWidth=1;dashed=0;container=1;spacing=-4;collapsible=0;expand=0;recursiveResize=0;" vertex="1" parent="1">
          <mxGeometry x="469.5" y="-560" width="105.5" height="246.04" as="geometry" />
        </mxCell>
        <mxCell id="3-Ja3zfgAtnqCm58jpz--54" value="EC2 Management PROXY server" style="text;html=1;strokeColor=none;fillColor=none;align=center;verticalAlign=middle;whiteSpace=wrap;rounded=0;" vertex="1" parent="3-Ja3zfgAtnqCm58jpz--32">
          <mxGeometry x="21.63" y="154.41" width="60" height="55.59" as="geometry" />
        </mxCell>
        <mxCell id="3-Ja3zfgAtnqCm58jpz--18" value="" style="sketch=0;points=[[0,0,0],[0.25,0,0],[0.5,0,0],[0.75,0,0],[1,0,0],[0,1,0],[0.25,1,0],[0.5,1,0],[0.75,1,0],[1,1,0],[0,0.25,0],[0,0.5,0],[0,0.75,0],[1,0.25,0],[1,0.5,0],[1,0.75,0]];outlineConnect=0;fontColor=#232F3E;gradientColor=#F78E04;gradientDirection=north;fillColor=#D05C17;strokeColor=#ffffff;dashed=0;verticalLabelPosition=bottom;verticalAlign=top;align=center;html=1;fontSize=12;fontStyle=0;aspect=fixed;shape=mxgraph.aws4.resourceIcon;resIcon=mxgraph.aws4.ec2;" vertex="1" parent="1">
          <mxGeometry x="501.38" y="-451.59000000000003" width="40" height="40" as="geometry" />
        </mxCell>
        <mxCell id="3-Ja3zfgAtnqCm58jpz--37" value="Availability zone 2" style="sketch=0;outlineConnect=0;gradientColor=none;html=1;whiteSpace=wrap;fontSize=12;fontStyle=0;shape=mxgraph.aws4.group;grIcon=mxgraph.aws4.group_availability_zone;strokeColor=#545B64;fillColor=none;verticalAlign=top;align=left;spacingLeft=30;fontColor=#545B64;dashed=1;" vertex="1" parent="1">
          <mxGeometry x="215" y="-650" width="140" height="600" as="geometry" />
        </mxCell>
        <mxCell id="3-Ja3zfgAtnqCm58jpz--35" value="Private subnet" style="points=[[0,0],[0.25,0],[0.5,0],[0.75,0],[1,0],[1,0.25],[1,0.5],[1,0.75],[1,1],[0.75,1],[0.5,1],[0.25,1],[0,1],[0,0.75],[0,0.5],[0,0.25]];outlineConnect=0;gradientColor=none;html=1;whiteSpace=wrap;fontSize=12;fontStyle=0;shape=mxgraph.aws4.group;grIcon=mxgraph.aws4.group_security_group;grStroke=0;strokeColor=#147EBA;fillColor=#E6F2F8;verticalAlign=top;align=left;spacingLeft=30;fontColor=#147EBA;dashed=0;" vertex="1" parent="1">
          <mxGeometry x="225" y="-275" width="120" height="170" as="geometry" />
        </mxCell>
        <mxCell id="3-Ja3zfgAtnqCm58jpz--52" style="edgeStyle=orthogonalEdgeStyle;rounded=0;orthogonalLoop=1;jettySize=auto;html=1;" edge="1" parent="1" target="3-Ja3zfgAtnqCm58jpz--47">
          <mxGeometry relative="1" as="geometry">
            <mxPoint x="303" y="-183.19999999999982" as="sourcePoint" />
          </mxGeometry>
        </mxCell>
        <mxCell id="3-Ja3zfgAtnqCm58jpz--38" value="Public subnet" style="points=[[0,0],[0.25,0],[0.5,0],[0.75,0],[1,0],[1,0.25],[1,0.5],[1,0.75],[1,1],[0.75,1],[0.5,1],[0.25,1],[0,1],[0,0.75],[0,0.5],[0,0.25]];outlineConnect=0;gradientColor=none;html=1;whiteSpace=wrap;fontSize=12;fontStyle=0;shape=mxgraph.aws4.group;grIcon=mxgraph.aws4.group_security_group;grStroke=0;strokeColor=#248814;fillColor=#E9F3E6;verticalAlign=top;align=left;spacingLeft=30;fontColor=#248814;dashed=0;" vertex="1" parent="1">
          <mxGeometry x="225" y="-600" width="120" height="310" as="geometry" />
        </mxCell>
        <mxCell id="3-Ja3zfgAtnqCm58jpz--31" value="Subnet:ACL" style="shape=mxgraph.ibm.box;prType=subnet;fontStyle=0;verticalAlign=top;align=left;spacingLeft=32;spacingTop=4;fillColor=#E6F0E2;rounded=0;whiteSpace=wrap;html=1;strokeColor=#00882B;strokeWidth=1;dashed=0;container=1;spacing=-4;collapsible=0;expand=0;recursiveResize=0;" vertex="1" parent="1">
          <mxGeometry x="225" y="-560" width="120" height="250" as="geometry" />
        </mxCell>
        <mxCell id="3-Ja3zfgAtnqCm58jpz--39" value="Security group" style="fillColor=none;strokeColor=#DD3522;verticalAlign=top;fontStyle=0;fontColor=#DD3522;" vertex="1" parent="1">
          <mxGeometry x="238.5" y="-500" width="84.5" height="160" as="geometry" />
        </mxCell>
        <mxCell id="3-Ja3zfgAtnqCm58jpz--41" value="" style="edgeStyle=orthogonalEdgeStyle;rounded=0;orthogonalLoop=1;jettySize=auto;html=1;" edge="1" parent="1" source="3-Ja3zfgAtnqCm58jpz--40">
          <mxGeometry relative="1" as="geometry">
            <mxPoint x="279" y="-207.23000272714853" as="targetPoint" />
          </mxGeometry>
        </mxCell>
        <mxCell id="3-Ja3zfgAtnqCm58jpz--40" value="" style="sketch=0;points=[[0,0,0],[0.25,0,0],[0.5,0,0],[0.75,0,0],[1,0,0],[0,1,0],[0.25,1,0],[0.5,1,0],[0.75,1,0],[1,1,0],[0,0.25,0],[0,0.5,0],[0,0.75,0],[1,0.25,0],[1,0.5,0],[1,0.75,0]];outlineConnect=0;fontColor=#232F3E;gradientColor=#F78E04;gradientDirection=north;fillColor=#D05C17;strokeColor=#ffffff;dashed=0;verticalLabelPosition=bottom;verticalAlign=top;align=center;html=1;fontSize=12;fontStyle=0;aspect=fixed;shape=mxgraph.aws4.resourceIcon;resIcon=mxgraph.aws4.ec2;" vertex="1" parent="1">
          <mxGeometry x="259" y="-448" width="40" height="40" as="geometry" />
        </mxCell>
        <mxCell id="3-Ja3zfgAtnqCm58jpz--42" value="" style="outlineConnect=0;dashed=0;verticalLabelPosition=bottom;verticalAlign=top;align=center;html=1;shape=mxgraph.aws3.route_53;fillColor=#F58536;gradientColor=none;" vertex="1" parent="1">
          <mxGeometry x="501.38" y="-610" width="44" height="45" as="geometry" />
        </mxCell>
        <mxCell id="3-Ja3zfgAtnqCm58jpz--45" value="Private subnet" style="points=[[0,0],[0.25,0],[0.5,0],[0.75,0],[1,0],[1,0.25],[1,0.5],[1,0.75],[1,1],[0.75,1],[0.5,1],[0.25,1],[0,1],[0,0.75],[0,0.5],[0,0.25]];outlineConnect=0;gradientColor=none;html=1;whiteSpace=wrap;fontSize=12;fontStyle=0;shape=mxgraph.aws4.group;grIcon=mxgraph.aws4.group_security_group;grStroke=0;strokeColor=#147EBA;fillColor=#E6F2F8;verticalAlign=top;align=left;spacingLeft=30;fontColor=#147EBA;dashed=0;" vertex="1" parent="1">
          <mxGeometry x="625" y="-280" width="110" height="170" as="geometry" />
        </mxCell>
        <mxCell id="3-Ja3zfgAtnqCm58jpz--47" value="" style="outlineConnect=0;dashed=0;verticalLabelPosition=bottom;verticalAlign=top;align=center;html=1;shape=mxgraph.aws3.rds_db_instance_read_replica;fillColor=#2E73B8;gradientColor=none;" vertex="1" parent="1">
          <mxGeometry x="652.25" y="-216.29000000000002" width="49.5" height="66" as="geometry" />
        </mxCell>
        <mxCell id="3-Ja3zfgAtnqCm58jpz--53" value="EC2 web application" style="text;html=1;strokeColor=none;fillColor=none;align=center;verticalAlign=middle;whiteSpace=wrap;rounded=0;" vertex="1" parent="1">
          <mxGeometry x="250.75" y="-394.59" width="60" height="30" as="geometry" />
        </mxCell>
        <mxCell id="3-Ja3zfgAtnqCm58jpz--55" value="Security group" style="fillColor=none;strokeColor=#DD3522;verticalAlign=top;fontStyle=0;fontColor=#DD3522;" vertex="1" parent="1">
          <mxGeometry x="479.75" y="-500" width="87.25" height="160" as="geometry" />
        </mxCell>
        <mxCell id="3-Ja3zfgAtnqCm58jpz--56" value="" style="sketch=0;outlineConnect=0;fontColor=#232F3E;gradientColor=none;fillColor=#2E27AD;strokeColor=none;dashed=0;verticalLabelPosition=bottom;verticalAlign=top;align=center;html=1;fontSize=12;fontStyle=0;aspect=fixed;pointerEvents=1;shape=mxgraph.aws4.aurora_instance;" vertex="1" parent="1">
          <mxGeometry x="253" y="-212.29000000000002" width="53.75" height="53.75" as="geometry" />
        </mxCell>
        <mxCell id="3-Ja3zfgAtnqCm58jpz--59" value="Subnet:ACL" style="shape=mxgraph.ibm.box;prType=subnet;fontStyle=0;verticalAlign=top;align=left;spacingLeft=32;spacingTop=4;fillColor=none;rounded=0;whiteSpace=wrap;html=1;strokeColor=#0F5D8A;strokeWidth=1;dashed=0;container=1;spacing=-4;collapsible=0;expand=0;recursiveResize=0;fontColor=#000000;labelBackgroundColor=none;" vertex="1" parent="1">
          <mxGeometry x="225" y="-240" width="120" height="120" as="geometry" />
        </mxCell>
        <mxCell id="3-Ja3zfgAtnqCm58jpz--60" value="Subnet:ACL" style="shape=mxgraph.ibm.box;prType=subnet;fontStyle=0;verticalAlign=top;align=left;spacingLeft=32;spacingTop=4;fillColor=none;rounded=0;whiteSpace=wrap;html=1;strokeColor=#0F5D8A;strokeWidth=1;dashed=0;container=1;spacing=-4;collapsible=0;expand=0;recursiveResize=0;fontColor=#000000;labelBackgroundColor=none;" vertex="1" parent="1">
          <mxGeometry x="623.75" y="-245.42000000000002" width="120" height="120" as="geometry" />
        </mxCell>
        <mxCell id="3-Ja3zfgAtnqCm58jpz--62" value="AWS Shield" style="sketch=0;outlineConnect=0;fontColor=#232F3E;gradientColor=none;strokeColor=#ffffff;fillColor=#232F3E;dashed=0;verticalLabelPosition=middle;verticalAlign=bottom;align=center;html=1;whiteSpace=wrap;fontSize=10;fontStyle=1;spacing=3;shape=mxgraph.aws4.productIcon;prIcon=mxgraph.aws4.shield;labelBackgroundColor=none;" vertex="1" parent="1">
          <mxGeometry y="-10" width="80" height="100" as="geometry" />
        </mxCell>
      </root>
    </mxGraphModel>
  </diagram>
</mxfile>
